<svg xmlns="http://www.w3.org/2000/svg" viewBox="0 0 24 24"><path fill="#15171A" d="M12 0C5.373 0 0 5.373 0 12s5.373 12 12 12 12-5.373 12-12S18.627 0 12 0zm-.462 4.8c3.342 0 6.054 2.632 6.054 5.876v4.836c0 .536-.168 1.06-.48 1.488-.615.84-1.586 1.2-2.484 1.2-.898 0-1.74-.36-2.107-.72a.169.169 0 0 0-.231 0c-.368.36-1.21.72-2.107.72-.898 0-1.74-.36-2.107-.72a.169.169 0 0 0-.231 0c-.368.36-1.21.72-2.107.72-.898 0-1.87-.36-2.484-1.2a2.472 2.472 0 0 1-.48-1.488v-4.836c0-3.244 2.711-5.876 6.054-5.876h2.71zm-3.825 5.04a1.2 1.2 0 1 0 0 2.4 1.2 1.2 0 0 0 0-2.4zm4.574 0a1.2 1.2 0 1 0 0 2.4 1.2 1.2 0 0 0 0-2.4z"/></svg>