<svg xmlns="http://www.w3.org/2000/svg" viewBox="0 0 100 100"><path fill="#fff" d="M6.017 4.313l55.333-4.087c6.797-.583 8.543-.19 12.817 2.917l17.663 12.443c2.913 2.14 3.883 2.723 3.883 5.053v68.243c0 4.277-1.553 6.807-6.99 7.193L24.467 99.967c-4.08.193-6.023-.39-8.16-3.113L3.3 79.94c-2.333-3.113-3.3-5.443-3.3-8.167V11.113c0-3.497 1.553-6.413 6.017-6.8z"/><path d="M61.35.227l-55.333 4.087C1.553 4.7 0 7.617 0 11.113v60.66c0 2.723.967 5.053 3.3 8.167l12.993 16.913c2.137 2.723 4.08 3.307 8.16 3.113l64.257-3.89c5.433-.387 6.99-2.917 6.99-7.193V17.64c0-2.21-.873-2.847-3.443-4.733L75.93 1.327C72.17-.953 70.42-1.54 63.627-.96L61.35.227zM25.6 19.013c-5.16.313-6.337.387-9.283-1.97l-7.84-6.02c-.77-.78-.383-1.753 1.557-1.947l51.973-3.693c4.47-.387 6.793 1.167 8.543 2.527l9.063 6.58c.39.197.967 1.36.193 1.36l-53.82 3.163-.387 0zM19.27 88.08V35.853c0-2.523.777-3.697 3.103-3.893L86.203 28.5c2.14-.193 3.107 1.167 3.107 3.693v51.84c0 2.527-.387 4.667-3.887 4.86l-60.377 3.5c-3.5.193-5.193-.97-5.777-4.313zm56.907-49.937c.387 1.75 0 3.5-1.75 3.7l-2.91.58v38.543c-2.527 1.36-4.853 2.137-6.797 2.137-3.11 0-3.883-.973-6.21-3.887l-19.03-29.94v28.967l6.02 1.363s0 3.5-4.857 3.5l-13.39.777c-.39-.78 0-2.723 1.357-3.11l3.497-.97V42.143l-4.853-.39c-.387-1.75.58-4.277 3.3-4.473l14.367-.967 19.8 30.327V40.2l-5.053-.58c-.39-2.143 1.163-3.7 3.103-3.89l13.4-.78z" fill="#000"/></svg>