<svg xmlns="http://www.w3.org/2000/svg" viewBox="0 0 256 292"><path fill="#95BF47" d="M223.774 57.34c-.201-1.46-1.48-2.268-2.537-2.357-1.055-.088-23.383-1.743-23.383-1.743s-15.507-15.395-17.209-17.099c-1.703-1.703-5.029-1.185-6.32-.805-.183.053-3.388 1.046-8.799 2.716-5.258-15.178-14.543-29.125-30.847-29.125-.45 0-.916.022-1.39.049-4.636-6.131-10.384-8.833-15.282-8.833-37.752 0-55.793 47.217-61.429 71.218-14.665 4.546-24.974 7.735-26.311 8.16-8.199 2.574-8.456 2.831-9.525 10.595C20.191 95.903 0 256.236 0 256.236l174.932 30.073L256 270.605s-32.025-211.805-32.226-213.265zM160.519 45.97c-4.171 1.293-8.943 2.773-14.093 4.37-.042-7.263-1.004-17.396-4.206-25.762 10.44 1.968 15.552 13.86 18.3 21.392zM134.088 53.2c-9.533 2.959-19.964 6.19-30.46 9.447 5.87-22.608 16.88-33.594 26.482-37.706 3.761 7.134 4.08 17.275 3.978 28.259zM113.73 1.668c1.732 0 3.453.637 5.094 1.896-12.559 5.911-26.03 20.795-31.726 50.527l-24.12 7.483C69.411 37.474 84.137 1.668 113.73 1.668z"/><path fill="#5E8E3E" d="M221.237 54.983c-1.055-.088-23.383-1.743-23.383-1.743s-15.507-15.395-17.209-17.099c-.637-.634-1.496-.946-2.42-1.073L174.932 286.31 256 270.605s-32.025-211.805-32.226-213.265c-.201-1.46-1.48-2.268-2.537-2.357z"/><path fill="#FFF" d="M135.242 104.585l-11.083 32.926s-9.742-5.176-21.635-5.176c-17.476 0-18.35 10.964-18.35 13.731 0 15.086 39.309 20.875 39.309 56.297 0 27.853-17.661 45.788-41.49 45.788-28.597 0-43.235-17.796-43.235-17.796l7.663-25.278s15.041 12.899 27.723 12.899c8.285 0 11.66-6.523 11.66-11.286 0-19.714-32.254-20.59-32.254-52.972 0-27.246 19.564-53.604 59.065-53.604 15.22 0 22.627 4.37 22.627 4.37z"/></svg>